<svg width="5000" height="5000" viewBox="0 0 5000 5000" fill="none" xmlns="http://www.w3.org/2000/svg">
<rect width="5000" height="5000" rx="1600" fill="#282828"/>
<path d="M2617.22 1359.74C2745.5 1360.09 2810.61 1360.77 2866.82 1362.37L2888.94 1363.17C2914.48 1364.08 2939.68 1365.22 2970.12 1366.59C3091.44 1372.29 3174.22 1391.44 3246.86 1419.61C3322.11 1448.57 3385.51 1487.79 3448.91 1551.08C3506.89 1608.07 3551.75 1677.02 3580.37 1753.12C3608.54 1825.76 3627.69 1908.54 3633.39 2029.97C3634.76 2060.3 3635.9 2085.5 3636.81 2111.16L3637.5 2133.28C3639.21 2189.38 3639.89 2254.48 3640.12 2382.76L3640.24 2467.82V2617.19C3640.52 2700.36 3639.64 2783.53 3637.61 2866.67L3636.93 2888.79C3636.02 2914.45 3634.88 2939.65 3633.51 2969.98C3627.81 3091.41 3608.42 3174.08 3580.37 3246.82C3551.83 3322.96 3506.96 3391.93 3448.91 3448.87C3391.89 3506.83 3322.95 3551.69 3246.86 3580.34C3174.22 3608.5 3091.44 3627.66 2970.12 3633.36C2943.07 3634.63 2916.01 3635.77 2888.94 3636.78L2866.82 3637.47C2810.61 3639.06 2745.5 3639.86 2617.22 3640.09L2532.16 3640.2H2382.91C2299.7 3640.49 2216.49 3639.61 2133.31 3637.58L2111.19 3636.9C2084.12 3635.87 2057.06 3634.69 2030 3633.36C1908.68 3627.66 1825.9 3608.5 1753.16 3580.34C1677.07 3551.76 1608.15 3506.89 1551.22 3448.87C1493.19 3391.89 1448.29 3322.94 1419.64 3246.82C1391.48 3174.19 1372.32 3091.41 1366.62 2969.98C1365.35 2942.92 1364.21 2915.86 1363.2 2888.79L1362.63 2866.67C1360.53 2783.53 1359.58 2700.36 1359.78 2617.19V2382.76C1359.46 2299.59 1360.3 2216.42 1362.29 2133.28L1363.09 2111.16C1364 2085.5 1365.14 2060.3 1366.51 2029.97C1372.21 1908.54 1391.36 1825.87 1419.53 1753.12C1448.16 1676.95 1493.15 1607.98 1551.34 1551.08C1608.24 1493.09 1677.12 1448.23 1753.16 1419.61C1825.9 1391.44 1908.57 1372.29 2030 1366.59C2060.33 1365.22 2085.65 1364.08 2111.19 1363.17L2133.31 1362.48C2216.45 1360.46 2299.62 1359.58 2382.79 1359.86L2617.22 1359.74ZM2500.01 1929.86C2348.8 1929.86 2203.79 1989.92 2096.88 2096.84C1989.96 2203.76 1929.89 2348.77 1929.89 2499.97C1929.89 2651.18 1989.96 2796.19 2096.88 2903.1C2203.79 3010.02 2348.8 3070.09 2500.01 3070.09C2651.21 3070.09 2796.22 3010.02 2903.14 2903.1C3010.06 2796.19 3070.12 2651.18 3070.12 2499.97C3070.12 2348.77 3010.06 2203.76 2903.14 2096.84C2796.22 1989.92 2651.21 1929.86 2500.01 1929.86ZM2500.01 2157.9C2544.93 2157.9 2589.41 2166.74 2630.92 2183.92C2672.42 2201.11 2710.13 2226.3 2741.9 2258.05C2773.67 2289.81 2798.87 2327.52 2816.07 2369.02C2833.27 2410.52 2842.13 2455 2842.13 2499.92C2842.14 2544.84 2833.3 2589.32 2816.12 2630.82C2798.93 2672.33 2773.74 2710.04 2741.98 2741.81C2710.22 2773.58 2672.52 2798.78 2631.02 2815.98C2589.52 2833.18 2545.04 2842.03 2500.12 2842.04C2409.4 2842.04 2322.39 2806 2258.24 2741.85C2194.09 2677.7 2158.05 2590.7 2158.05 2499.97C2158.05 2409.25 2194.09 2322.24 2258.24 2258.09C2322.39 2193.94 2409.4 2157.9 2500.12 2157.9M3098.74 1758.82C3060.94 1758.82 3024.69 1773.84 2997.96 1800.57C2971.23 1827.3 2956.21 1863.55 2956.21 1901.35C2956.21 1939.15 2971.23 1975.41 2997.96 2002.14C3024.69 2028.87 3060.94 2043.88 3098.74 2043.88C3136.54 2043.88 3172.79 2028.87 3199.52 2002.14C3226.25 1975.41 3241.27 1939.15 3241.27 1901.35C3241.27 1863.55 3226.25 1827.3 3199.52 1800.57C3172.79 1773.84 3136.54 1758.82 3098.74 1758.82Z" fill="#FFFBFB"/>
</svg>
