<svg width="5000" height="5000" viewBox="0 0 5000 5000" fill="none" xmlns="http://www.w3.org/2000/svg">
<rect width="5000" height="5000" rx="1600" fill="#282828"/>
<path d="M2893.75 2050C2797.94 2049.67 2703.01 2068.24 2614.39 2104.63C2525.77 2141.03 2445.19 2194.55 2377.27 2262.12C2309.35 2329.69 2255.42 2409.99 2218.57 2498.42C2181.72 2586.86 2162.66 2681.69 2162.5 2777.5V3512.5C2162.5 3542.34 2174.35 3570.95 2195.45 3592.05C2216.55 3613.15 2245.16 3625 2275 3625H2537.5C2567.34 3625 2595.95 3613.15 2617.05 3592.05C2638.15 3570.95 2650 3542.34 2650 3512.5V2777.5C2649.98 2743.43 2657.13 2709.73 2671 2678.6C2684.88 2647.48 2705.15 2619.63 2730.51 2596.87C2755.86 2574.11 2785.73 2556.94 2818.17 2546.5C2850.6 2536.05 2884.88 2532.56 2918.75 2536.25C2979.5 2543.9 3035.33 2573.58 3075.65 2619.66C3115.97 2665.74 3137.98 2725.02 3137.5 2786.25V3512.5C3137.5 3542.34 3149.35 3570.95 3170.45 3592.05C3191.55 3613.15 3220.16 3625 3250 3625H3512.5C3542.34 3625 3570.95 3613.15 3592.05 3592.05C3613.15 3570.95 3625 3542.34 3625 3512.5V2777.5C3624.84 2681.69 3605.78 2586.86 3568.93 2498.42C3532.08 2409.99 3478.15 2329.69 3410.23 2262.12C3342.31 2194.55 3261.73 2141.03 3173.11 2104.63C3084.49 2068.24 2989.56 2049.67 2893.75 2050Z" fill="white"/>
<path d="M1825 2162.5H1487.5C1425.37 2162.5 1375 2212.87 1375 2275V3512.5C1375 3574.63 1425.37 3625 1487.5 3625H1825C1887.13 3625 1937.5 3574.63 1937.5 3512.5V2275C1937.5 2212.87 1887.13 2162.5 1825 2162.5Z" fill="white"/>
<path d="M1656.25 1937.5C1811.58 1937.5 1937.5 1811.58 1937.5 1656.25C1937.5 1500.92 1811.58 1375 1656.25 1375C1500.92 1375 1375 1500.92 1375 1656.25C1375 1811.58 1500.92 1937.5 1656.25 1937.5Z" fill="white"/>
</svg>
