<svg width="5000" height="5000" viewBox="0 0 5000 5000" fill="none" xmlns="http://www.w3.org/2000/svg">
<rect width="5000" height="5000" rx="1600" fill="#282828"/>
<path d="M3527.94 1861.22C3452.27 1895.62 3370.7 1918.22 3286.18 1929.03C3372.66 1876.95 3439.49 1794.4 3470.94 1695.14C3389.37 1744.28 3298.96 1778.68 3203.64 1798.33C3126 1713.82 3016.92 1664.68 2893.09 1664.68C2662.15 1664.68 2473.47 1853.36 2473.47 2086.27C2473.47 2119.68 2477.4 2152.11 2484.28 2182.58C2134.42 2164.89 1822.9 1996.84 1615.54 1742.31C1579.18 1804.23 1558.54 1876.95 1558.54 1953.6C1558.54 2100.03 1632.25 2229.75 1746.25 2303.45C1676.47 2303.45 1611.61 2283.8 1554.61 2254.32V2257.27C1554.61 2461.67 1700.06 2632.67 1892.67 2670.99C1830.83 2687.92 1765.91 2690.27 1703.01 2677.87C1729.7 2761.65 1781.97 2834.95 1852.48 2887.48C1922.99 2940.01 2008.19 2969.13 2096.1 2970.73C1947.08 3088.7 1762.36 3152.47 1572.3 3151.55C1538.89 3151.55 1505.48 3149.58 1472.06 3145.65C1658.78 3265.55 1880.88 3335.32 2118.7 3335.32C2893.09 3335.32 3318.61 2692.61 3318.61 2135.41C3318.61 2116.73 3318.61 2099.05 3317.63 2080.37C3400.18 2021.41 3470.94 1946.72 3527.94 1861.22Z" fill="#FFFBFB"/>
</svg>
